# Blender v2.79 (sub 0) OBJ File: ''
# www.blender.org
mtllib icosahedron.mtl
v 0.500000 0.165329 0.500000
v 0.621084 0.350330 0.587972
v 0.453751 0.350330 0.642342
v 0.350331 0.350330 0.500000
v 0.453751 0.350330 0.357658
v 0.621084 0.350330 0.412028
v 0.546249 0.649670 0.642342
v 0.378916 0.649670 0.587972
v 0.378916 0.649670 0.412028
v 0.546249 0.649670 0.357658
v 0.649669 0.649670 0.500000
v 0.500000 0.834671 0.500000
vt 0.000000 0.000000
vt 1.000000 0.000000
vt 1.000000 1.000000
vt 0.000000 0.000000
vt 1.000000 0.000000
vt 1.000000 1.000000
vt 1.000000 0.000000
vt 1.000000 1.000000
vt 1.000000 0.000000
vt 1.000000 1.000000
vt 1.000000 0.000000
vt 1.000000 0.000000
vt 1.000000 1.000000
vt 0.000000 0.000000
vt 1.000000 1.000000
vt 0.000000 0.000000
vt 1.000000 1.000000
vt 0.000000 0.000000
vt 1.000000 1.000000
vt 0.000000 0.000000
vt 1.000000 1.000000
vt 1.000000 0.000000
vt 1.000000 0.000000
vt 1.000000 0.000000
vt 1.000000 0.000000
vt 1.000000 0.000000
vt 0.000000 0.000000
vt 1.000000 1.000000
vt 0.000000 0.000000
vt 0.000000 0.000000
vt 0.000000 0.000000
vt 0.000000 0.000000
vn 0.2586 -0.5476 0.7958
vn 0.8367 -0.5476 0.0000
vn -0.6769 -0.5476 0.4918
vn -0.6769 -0.5476 -0.4918
vn 0.2586 -0.5476 -0.7958
vn 0.9955 -0.0951 0.0000
vn 0.3076 -0.0951 0.9467
vn -0.8053 -0.0951 0.5851
vn -0.8053 -0.0951 -0.5851
vn 0.3076 -0.0951 -0.9467
vn 0.8053 0.0951 0.5851
vn -0.3076 0.0951 0.9467
vn -0.9955 0.0951 0.0000
vn -0.3076 0.0951 -0.9467
vn 0.8053 0.0951 -0.5851
vn 0.6769 0.5476 0.4918
vn -0.2586 0.5476 0.7958
vn -0.8367 0.5476 0.0000
vn -0.2586 0.5476 -0.7958
vn 0.6769 0.5476 -0.4918
usemtl Icosahedron
f 1/1/1 2/2/1 3/3/1
f 2/4/2 1/5/2 6/6/2
f 1/1/3 3/7/3 4/8/3
f 1/1/4 4/9/4 5/10/4
f 1/1/5 5/11/5 6/6/5
f 2/4/6 6/12/6 11/13/6
f 3/14/7 2/2/7 7/15/7
f 4/16/8 3/7/8 8/17/8
f 5/18/9 4/9/9 9/19/9
f 6/20/10 5/11/10 10/21/10
f 2/4/11 11/22/11 7/15/11
f 3/14/12 7/23/12 8/17/12
f 4/16/13 8/24/13 9/19/13
f 5/18/14 9/25/14 10/21/14
f 6/20/15 10/26/15 11/13/15
f 7/27/16 11/22/16 12/28/16
f 8/29/17 7/23/17 12/28/17
f 9/30/18 8/24/18 12/28/18
f 10/31/19 9/25/19 12/28/19
f 11/32/20 10/26/20 12/28/20
