# Blender v2.79 (sub 0) OBJ File: ''
# www.blender.org
mtllib ${MTL}
v 0.500000 -0.130146 0.477052
v 0.621084 0.036768 0.595812
v 0.453751 0.027327 0.649356
v 0.621084 0.067320 0.422541
v 0.350331 0.052044 0.509177
v 0.453751 0.076762 0.368997
v 0.649669 0.346837 0.561157
v 0.546249 0.322119 0.701336
v 0.378916 0.331560 0.647792
v 0.378916 0.362113 0.474521
v 0.546249 0.371554 0.420977
v 0.500000 0.529027 0.593282
vt 0.000000 0.000000
vt 1.000000 0.000000
vt 1.000000 1.000000
vt 0.000000 0.000000
vt 1.000000 0.000000
vt 1.000000 1.000000
vt 1.000000 0.000000
vt 1.000000 1.000000
vt 1.000000 0.000000
vt 1.000000 1.000000
vt 1.000000 0.000000
vt 1.000000 0.000000
vt 1.000000 1.000000
vt 0.000000 0.000000
vt 1.000000 1.000000
vt 0.000000 0.000000
vt 1.000000 1.000000
vt 0.000000 0.000000
vt 1.000000 1.000000
vt 0.000000 0.000000
vt 1.000000 1.000000
vt 1.000000 0.000000
vt 1.000000 0.000000
vt 1.000000 0.000000
vt 1.000000 0.000000
vt 1.000000 0.000000
vt 0.000000 0.000000
vt 1.000000 1.000000
vt 0.000000 0.000000
vt 0.000000 0.000000
vt 0.000000 0.000000
vt 0.000000 0.000000
vn 0.2586 -0.6775 0.6886
vn 0.8367 -0.5393 -0.0951
vn -0.6769 -0.6247 0.3893
vn -0.6769 -0.4539 -0.5794
vn 0.2586 -0.4011 -0.8788
vn 0.9955 -0.0936 -0.0165
vn 0.3076 -0.2580 0.9159
vn -0.8053 -0.1952 0.5597
vn -0.8053 0.0080 -0.5928
vn 0.3076 0.0708 -0.9489
vn 0.8053 -0.0080 0.5928
vn -0.3076 -0.0708 0.9489
vn -0.9955 0.0936 0.0165
vn -0.3076 0.2580 -0.9159
vn 0.8053 0.1952 -0.5597
vn 0.6769 0.4539 0.5794
vn -0.2586 0.4011 0.8788
vn -0.8367 0.5393 0.0951
vn -0.2586 0.6775 -0.6886
vn 0.6769 0.6247 -0.3893
usemtl Icosahedron
s 1
f 1/1/1 2/2/1 3/3/1
f 2/4/2 1/5/2 4/6/2
f 1/1/3 3/7/3 5/8/3
f 1/1/4 5/9/4 6/10/4
f 1/1/5 6/11/5 4/6/5
f 2/4/6 4/12/6 7/13/6
f 3/14/7 2/2/7 8/15/7
f 5/16/8 3/7/8 9/17/8
f 6/18/9 5/9/9 10/19/9
f 4/20/10 6/11/10 11/21/10
f 2/4/11 7/22/11 8/15/11
f 3/14/12 8/23/12 9/17/12
f 5/16/13 9/24/13 10/19/13
f 6/18/14 10/25/14 11/21/14
f 4/20/15 11/26/15 7/13/15
f 8/27/16 7/22/16 12/28/16
f 9/29/17 8/23/17 12/28/17
f 10/30/18 9/24/18 12/28/18
f 11/31/19 10/25/19 12/28/19
f 7/32/20 11/26/20 12/28/20
