# Blender v2.79 (sub 0) OBJ File: ''
# www.blender.org
mtllib ${MTL}
v 0.715556 -0.075644 0.371696
v 0.693746 0.161292 0.375102
v 0.699303 0.094140 0.537633
v 0.560496 0.084934 0.289252
v 0.569486 -0.023721 0.552234
v 0.483699 -0.029410 0.398724
v 0.448410 0.353962 0.404235
v 0.534196 0.359650 0.557745
v 0.457399 0.245307 0.667217
v 0.324149 0.168949 0.581367
v 0.318593 0.236101 0.418837
v 0.302340 0.405885 0.584773
vt 0.000000 0.000000
vt 1.000000 0.000000
vt 1.000000 1.000000
vt 0.000000 0.000000
vt 1.000000 0.000000
vt 1.000000 1.000000
vt 1.000000 0.000000
vt 1.000000 1.000000
vt 1.000000 0.000000
vt 1.000000 1.000000
vt 1.000000 0.000000
vt 1.000000 0.000000
vt 1.000000 1.000000
vt 0.000000 0.000000
vt 1.000000 1.000000
vt 0.000000 0.000000
vt 1.000000 1.000000
vt 0.000000 0.000000
vt 1.000000 1.000000
vt 0.000000 0.000000
vt 1.000000 1.000000
vt 1.000000 0.000000
vt 1.000000 0.000000
vt 1.000000 0.000000
vt 1.000000 0.000000
vt 1.000000 0.000000
vt 0.000000 0.000000
vt 1.000000 1.000000
vt 0.000000 0.000000
vt 0.000000 0.000000
vt 0.000000 0.000000
vt 0.000000 0.000000
vn 0.9958 0.0916 0.0038
vn 0.5162 0.0598 -0.8544
vn 0.5665 -0.5476 0.6158
vn -0.1785 -0.9745 0.1359
vn -0.2095 -0.5991 -0.7728
vn 0.2706 0.4715 -0.8393
vn 0.8412 0.5093 0.1817
vn 0.3304 -0.2512 0.9098
vn -0.5559 -0.7591 0.3388
vn -0.5928 -0.3124 -0.7422
vn 0.5559 0.7591 -0.3388
vn 0.5928 0.3124 0.7422
vn -0.2706 -0.4715 0.8393
vn -0.8412 -0.5093 -0.1817
vn -0.3304 0.2512 -0.9098
vn 0.1785 0.9745 -0.1359
vn 0.2095 0.5991 0.7728
vn -0.5162 -0.0598 0.8544
vn -0.9958 -0.0916 -0.0038
vn -0.5665 0.5476 -0.6158
usemtl Icosahedron
s 1
f 1/1/1 2/2/1 3/3/1
f 2/4/2 1/5/2 4/6/2
f 1/1/3 3/7/3 5/8/3
f 1/1/4 5/9/4 6/10/4
f 1/1/5 6/11/5 4/6/5
f 2/4/6 4/12/6 7/13/6
f 3/14/7 2/2/7 8/15/7
f 5/16/8 3/7/8 9/17/8
f 6/18/9 5/9/9 10/19/9
f 4/20/10 6/11/10 11/21/10
f 2/4/11 7/22/11 8/15/11
f 3/14/12 8/23/12 9/17/12
f 5/16/13 9/24/13 10/19/13
f 6/18/14 10/25/14 11/21/14
f 4/20/15 11/26/15 7/13/15
f 8/27/16 7/22/16 12/28/16
f 9/29/17 8/23/17 12/28/17
f 10/30/18 9/24/18 12/28/18
f 11/31/19 10/25/19 12/28/19
f 7/32/20 11/26/20 12/28/20
